<svg xmlns="http://www.w3.org/2000/svg" viewBox="0 0 498 201"><defs><style>.cls-1,.cls-3{fill:none;}.cls-2{fill:#fff;}.cls-3{stroke:#fff;stroke-width:5.7px;}</style></defs><g id="Layer_2" data-name="Layer 2"><g id="Layer_1-2" data-name="Layer 1"><rect class="cls-1" width="498" height="201"/><g id="Camada_2" data-name="Camada 2"><g id="Layer_1-3" data-name="Layer 1"><path id="path845" class="cls-2" d="M147,178.37l-7.26-13.85A23.63,23.63,0,0,1,137,153.6l0-13.13a12.17,12.17,0,0,0-1.79-6.36,23.82,23.82,0,0,0-7-7.5,6.14,6.14,0,0,0-5.33-.77c-1-1.18-3.67-3.65-7.43-3.23a7.2,7.2,0,0,0-4.32-1.9,5,5,0,0,0-3.41,1.2c-3.6-6.37-7.84-14.4-9.69-18.64a4.25,4.25,0,0,0-7.87,3.19c1.05,2.8,3.19,7.43,5.45,12.31s4.62,10,5.88,13.3a22.74,22.74,0,0,1,1.16,12.46,21.53,21.53,0,0,0-2.83-2.9A7.92,7.92,0,0,1,97,136.37c-.55-5.71-3-8.42-4.91-9.69a2.16,2.16,0,0,0-2.18-.12c-.7.36-1.57.92-1.61,1.7l-.15,12.42a10.21,10.21,0,0,0,1,4.86l5.81,12.15,0,.1c3.45,5.65,9.1,8.13,12.83,9.77a21.18,21.18,0,0,1,3,1.48,7.81,7.81,0,0,1,2.44,2.73l7.33,13.65a1.12,1.12,0,0,0,1.24.55,1.17,1.17,0,0,0,.26-.1,1.11,1.11,0,0,0,.45-1.5l-7.33-13.65a9.84,9.84,0,0,0-3.15-3.51,22.46,22.46,0,0,0-3.38-1.69c-3.68-1.6-8.72-3.82-11.8-8.84l-5.8-12.1a8,8,0,0,1-.77-3.8l-.12-12.41c2.38-.57,4.08,3.45,4.55,8.23a10.05,10.05,0,0,0,3.52,6.72,15.49,15.49,0,0,1,4.81,6.69c.18.59.64-.87.86-1.44.26-3.57,1-12-.5-17.29-1.28-3.35-3.65-8.48-5.94-13.43s-4.37-9.44-5.38-12.17a2,2,0,0,1,3.75-1.52c2.94,6.71,13.85,26.77,16,28.66,1.11.92,1.23,3.08,1.45-1.67a52.74,52.74,0,0,1-4.63-7.27h0a3,3,0,0,1,2.22-1,5.33,5.33,0,0,1,3.2,1.62l2.72,3.19c1,1.12,2.3,3.67,1.69-1.44l-1.16-1.36a7.47,7.47,0,0,1,3.85,2.54h0l.37.51.12.16h0l2.12,2.91c.88,1.13,1.86,3.69,1.79-1.31l-1.42-1.94a3.93,3.93,0,0,1,2.64.67l0,0a21.17,21.17,0,0,1,6.36,6.8,9.92,9.92,0,0,1,1.47,5.2l0,13.13a26.05,26.05,0,0,0,3,11.95L145,179.4a1.1,1.1,0,0,0,1.24.56,1.06,1.06,0,0,0,.25-.09,1.1,1.1,0,0,0,.47-1.5Z"/><path id="path857" class="cls-3" d="M52.5,125A49.54,49.54,0,0,1,29.75,83.08c0-27.2,21.51-49.25,48-49.25h0c26.53,0,48,22.05,48,49.25h0v.72"/><path id="path3265" class="cls-3" d="M59.42,129.28c-1.13-.6-2.24-1.24-3.32-1.93"/><g id="text3234"><path id="path3236" class="cls-2" d="M95.62,89.92a9.93,9.93,0,0,1-3.71,7.9,17.22,17.22,0,0,1-9.71,3.71v11.09H78.58V101.68a39,39,0,0,1-7.6-.76,30.3,30.3,0,0,1-6.15-2V92.89h.49a19.12,19.12,0,0,0,2.08,1.26,22.85,22.85,0,0,0,2.91,1.31A35.94,35.94,0,0,0,74,96.57a25.14,25.14,0,0,0,4.56.58V83.88l-2.26-.46c-.7-.16-1.34-.33-1.93-.49-3.33-.84-5.72-2.09-7.17-3.77A9.28,9.28,0,0,1,65,72.91a9.81,9.81,0,0,1,3.55-7.66q3.59-3.12,10-3.65V53.27H82.2v8.27a34.39,34.39,0,0,1,6.34.74A32.71,32.71,0,0,1,94,63.84v6h-.43a37.7,37.7,0,0,0-4.81-2.49A19.76,19.76,0,0,0,82.2,66v13.2c.61.1,1.28.25,2,.43s1.34.3,1.87.4a14.24,14.24,0,0,1,7,3.37A8.6,8.6,0,0,1,95.62,89.92Zm-17-11.25V66a10.83,10.83,0,0,0-5.51,1.8,4.93,4.93,0,0,0-2.24,4.29,5.19,5.19,0,0,0,1.66,4.2Q74.14,77.72,78.58,78.67Zm11.25,12A4.81,4.81,0,0,0,88,86.52,14.24,14.24,0,0,0,82.2,84.4V97.09a11.07,11.07,0,0,0,5.64-1.87A5.28,5.28,0,0,0,89.83,90.71Z"/></g></g></g><path class="cls-2" d="M173.49,79.32c3.24,0,5.75.81,7.55,2.45s2.7,4.13,2.7,7.47a11.63,11.63,0,0,1-1.56,6.34,7.28,7.28,0,0,1-4.86,3.16v.11a7,7,0,0,1,4.26,1.88,8,8,0,0,1,1.67,4.7c.08.72.13,1.5.17,2.34s.07,1.79.1,2.84c.08,2,.18,3.61.33,4.69a3,3,0,0,0,1.4,2.21v.33h-8.42a4.25,4.25,0,0,1-.75-1.87,21.44,21.44,0,0,1-.22-2.18l-.21-7.39a6,6,0,0,0-1.14-3.56,4.12,4.12,0,0,0-3.45-1.3h-4.15v16.3h-7.77V79.32Zm-3.35,16.83a6.38,6.38,0,0,0,4.32-1.32c1-.88,1.51-2.37,1.51-4.45Q176,85,170.58,85h-3.67V96.15Z"/><path class="cls-2" d="M210.66,85.68H196.9v9.07h12.95v6.36H196.9v10.36h14.3v6.37H189.13V79.32h21.53Z"/><path class="cls-2" d="M221.34,106.94a12.26,12.26,0,0,0,.22,2.45,4.16,4.16,0,0,0,.81,1.86,3.88,3.88,0,0,0,1.59,1.19,6.28,6.28,0,0,0,2.51.43,5,5,0,0,0,3.21-1.16,4.36,4.36,0,0,0,1.43-3.59,6.48,6.48,0,0,0-.35-2.23,4.46,4.46,0,0,0-1.16-1.7,8,8,0,0,0-2.13-1.38,31.41,31.41,0,0,0-3.27-1.27,27.2,27.2,0,0,1-4.48-1.89,11.8,11.8,0,0,1-3.15-2.4,8.35,8.35,0,0,1-1.86-3.18,13.25,13.25,0,0,1-.6-4.18q0-5.72,3.19-8.52T226,78.56a18.9,18.9,0,0,1,4.77.57A10,10,0,0,1,234.59,81a8.62,8.62,0,0,1,2.48,3.24,11.42,11.42,0,0,1,.89,4.72V90h-7.45a7.71,7.71,0,0,0-1-4.24,3.55,3.55,0,0,0-3.23-1.48,5.39,5.39,0,0,0-2.16.38,3.61,3.61,0,0,0-1.38,1,3.55,3.55,0,0,0-.7,1.43,7.15,7.15,0,0,0-.19,1.68,5.51,5.51,0,0,0,.76,3A6.72,6.72,0,0,0,225.87,94l6,2.59a18.61,18.61,0,0,1,3.62,2,10,10,0,0,1,2.24,2.27,7.78,7.78,0,0,1,1.16,2.67,15.33,15.33,0,0,1,.32,3.24q0,6.09-3.53,8.87t-9.85,2.78q-6.58,0-9.41-2.86t-2.84-8.2v-1.56h7.77Z"/><path class="cls-2" d="M242.68,90.51a17.83,17.83,0,0,1,1.78-6.34,10,10,0,0,1,4-4.13,17.08,17.08,0,0,1,13.91,0,10,10,0,0,1,4,4.13,17.83,17.83,0,0,1,1.78,6.34,79.82,79.82,0,0,1,0,16.16,17.78,17.78,0,0,1-1.78,6.31,9.52,9.52,0,0,1-4,4,18,18,0,0,1-13.91,0,9.52,9.52,0,0,1-4-4,17.78,17.78,0,0,1-1.78-6.31,81.81,81.81,0,0,1,0-16.16Zm7.55,14.67a18.41,18.41,0,0,0,.76,4.43,4.94,4.94,0,0,0,1.62,2.48,5.33,5.33,0,0,0,5.55,0,4.94,4.94,0,0,0,1.62-2.48,18.41,18.41,0,0,0,.76-4.43c.12-1.81.19-4,.19-6.6s-.07-4.79-.19-6.59a18.78,18.78,0,0,0-.76-4.42,5,5,0,0,0-1.62-2.51,5.33,5.33,0,0,0-5.55,0A5,5,0,0,0,251,87.57a18.78,18.78,0,0,0-.76,4.42c-.12,1.8-.19,4-.19,6.59S250.11,103.37,250.23,105.18Z"/><path class="cls-2" d="M273.08,79.32h7.77v32.15h13.76v6.37H273.08Z"/><path class="cls-2" d="M305.29,107.8h.16l5.72-28.48h8l-8.85,38.52h-10l-8.85-38.52h8.31Z"/><path class="cls-2" d="M343.59,85.68H329.84v9.07h12.94v6.36H329.84v10.36h14.29v6.37H322.07V79.32h21.52Z"/><path class="cls-2" d="M368.73,79.32V94h9.07V79.32h7.77v38.52H377.8V100.73h-9.07v17.11H361V79.32Z"/><path class="cls-2" d="M390.56,90.51a17.83,17.83,0,0,1,1.78-6.34,10,10,0,0,1,4-4.13,17.11,17.11,0,0,1,13.92,0,10,10,0,0,1,4,4.13A18,18,0,0,1,416,90.51a81.81,81.81,0,0,1,0,16.16,18,18,0,0,1-1.78,6.31,9.52,9.52,0,0,1-4,4,18,18,0,0,1-13.92,0,9.5,9.5,0,0,1-4-4,17.78,17.78,0,0,1-1.78-6.31,79.82,79.82,0,0,1,0-16.16Zm7.55,14.67a18.41,18.41,0,0,0,.76,4.43,4.87,4.87,0,0,0,1.61,2.48,5.34,5.34,0,0,0,5.56,0,4.94,4.94,0,0,0,1.62-2.48,18,18,0,0,0,.75-4.43q.19-2.72.19-6.6T408.41,92a18.33,18.33,0,0,0-.75-4.42A5,5,0,0,0,406,85.06a5.34,5.34,0,0,0-5.56,0,4.88,4.88,0,0,0-1.61,2.51,18.78,18.78,0,0,0-.76,4.42q-.19,2.7-.19,6.59T398.11,105.18Z"/><path class="cls-2" d="M440.87,107.05c0,4.1-1,7-2.86,8.76s-4.82,2.62-8.74,2.62a13,13,0,0,1-5-.84,7.52,7.52,0,0,1-3.13-2.37,9,9,0,0,1-1.59-3.59,20.66,20.66,0,0,1-.43-4.31v-1.68h7.12v1.19a11.6,11.6,0,0,0,.68,4.56,3.34,3.34,0,0,0,5.55,0,11.6,11.6,0,0,0,.68-4.56V79.32h7.77Z"/><path class="cls-2" d="M467.46,85.68H453.71v9.07h12.94v6.36H453.71v10.36H468v6.37H445.94V79.32h21.52Z"/></g></g></svg>